PathFileType	4	(X/Y/Z)	Running2.trc
DataRate	CameraRate	NumFrames	NumMarkers	Units	OrigDataRate	OrigDataStartFrame	OrigNumFrames
100	100	53	2	mm	100	3001	6000
Frame#	Time	mal_lat_left			mal_lat_right		
		X	Y	Z	X	Y	Z	
3001	15.0	611.255310058594	444.479095458984	323.210906982422	1097.52331542969	247.066390991211	87.1086959838867
3002	15.005	616.976257324219	444.208709716797	326.285583496094	1088.57556152344	247.771682739258	88.2303848266602
3003	15.01	623.260314941406	443.962432861328	328.993225097656	1078.91662597656	248.465362548828	89.1589126586914
3004	15.015	630.064270019531	443.657012939453	331.330261230469	1067.94055175781	249.268798828125	90.1417617797852
3005	15.02	637.341613769531	443.395874023438	333.2548828125	1056.75061035156	249.882080078125	90.8598175048828
3006	15.025	644.993286132812	443.095184326172	334.7763671875	1045.76452636719	250.171813964844	91.1724395751953
3007	15.03	652.937927246094	442.829437255859	335.796539306641	1034.56762695312	250.210723876953	91.4791641235352
3008	15.035	661.17822265625	442.650817871094	336.383697509766	1023.03021240234	250.149917602539	91.7778015136719
3009	15.04	669.578430175781	442.600280761719	336.522705078125	1011.28411865234	250.052612304688	91.9813232421875
3010	15.045	678.060974121094	442.605255126953	336.262359619141	999.521728515625	249.965576171875	92.1077880859375
3011	15.05	686.788330078125	442.642211914062	335.503448486328	987.631469726562	250.034271240234	92.2697067260742
3012	15.055	695.551696777344	442.719696044922	334.348693847656	975.577514648438	250.063812255859	92.6192398071289
3013	15.06	704.486633300781	442.819854736328	332.729553222656	963.573120117188	250.229064941406	92.8873748779297
3014	15.065	713.474670410156	442.787933349609	330.649963378906	951.405578613281	250.193740844727	93.3755187988281
3015	15.07	722.57373046875	442.878173828125	328.117858886719	939.477355957031	250.331985473633	93.6577453613281
3016	15.075	731.732788085938	442.791961669922	325.193298339844	927.374267578125	250.24934387207	94.1944274902344
3017	15.08	740.797729492188	442.619934082031	321.685638427734	915.23779296875	250.003067016602	94.8246307373047
3018	15.085	749.990478515625	442.437255859375	317.890106201172	903.141906738281	249.662506103516	95.5211791992188
3019	15.09	759.149658203125	442.202758789062	313.713653564453	891.167053222656	249.375732421875	96.2864303588867
3020	15.095	768.291442871094	441.957794189453	309.165649414062	879.184020996094	248.996520996094	97.1863784790039
3021	15.1	777.381469726562	441.58837890625	304.304443359375	867.290222167969	248.509292602539	98.2220764160156
3022	15.105	786.640258789062	441.134521484375	299.059173583984	855.443420410156	247.951232910156	99.4526214599609
3023	15.11	795.796081542969	440.714141845703	293.639129638672	843.721923828125	247.379547119141	100.94921875
3024	15.115	805.219604492188	440.139312744141	287.786926269531	831.941833496094	246.60237121582	102.905708312988
3025	15.12	814.626342773438	439.388977050781	281.688232421875	820.459106445312	245.766372680664	105.047218322754
3026	15.125	824.3056640625	438.579010009766	275.185241699219	809.202453613281	244.877731323242	107.451599121094
3027	15.13	833.933715820312	437.667022705078	268.590606689453	798.21630859375	243.862670898438	110.175521850586
3028	15.135	843.8876953125	436.682159423828	261.697570800781	787.502136230469	242.785186767578	113.281837463379
3029	15.14	854.039428710938	435.655334472656	254.6474609375	777.483276367188	241.390731811523	116.415802001953
3030	15.145	864.470153808594	434.550170898438	247.409317016602	766.83349609375	240.584686279297	120.224800109863
3031	15.15	875.279357910156	433.243072509766	239.925094604492	757.580139160156	239.588500976562	123.367553710938
3032	15.155	886.193420410156	432.127349853516	232.386932373047	748.163024902344	238.360733032227	127.238418579102
3033	15.16	897.369873046875	430.934051513672	224.704360961914	739.102111816406	237.097244262695	131.246978759766
3034	15.165	908.960144042969	429.722045898438	216.91194152832	730.463256835938	235.83625793457	135.354202270508
3035	15.17	920.829650878906	428.453277587891	208.973587036133	722.273132324219	234.374740600586	139.603271484375
3036	15.175	932.875671386719	427.34130859375	201.234298706055	713.969055175781	233.129531860352	144.000640869141
3037	15.18	945.143249511719	426.279205322266	193.341247558594	706.169372558594	231.677993774414	148.418670654297
3038	15.185	957.522033691406	425.324249267578	185.796691894531	698.652770996094	230.23811340332	152.912399291992
3039	15.19	970.28076171875	424.459350585938	178.30842590332	691.420654296875	228.793502807617	157.51545715332
3040	15.195	983.200317382812	423.519012451172	170.996322631836	684.546936035156	227.325119018555	162.070541381836
3041	15.2	996.353576660156	422.827392578125	163.984558105469	677.923583984375	225.91064453125	166.737426757812
3042	15.205	1009.49371337891	422.155151367188	157.280700683594	671.553649902344	224.569931030273	171.478317260742
3043	15.21	1022.60302734375	421.631530761719	151.058990478516	665.320922851562	223.109848022461	176.217529296875
3044	15.215	1035.46997070312	421.106597900391	145.241439819336	659.563598632812	221.923736572266	180.984039306641
3045	15.22	1047.98815917969	420.539215087891	139.84831237793	654.000366210938	220.898040771484	185.737762451172
3046	15.225	1059.97497558594	419.930328369141	135.047409057617	648.637451171875	219.992950439453	190.487609863281
3047	15.23	1071.30749511719	419.405120849609	130.723907470703	643.313781738281	219.156234741211	195.211685180664
3048	15.235	1081.83740234375	418.786437988281	126.890617370605	638.026733398438	218.458786010742	199.791320800781
3049	15.24	1091.46325683594	418.176849365234	123.515830993652	632.593200683594	217.759246826172	204.392669677734
3050	15.245	1099.98913574219	417.511627197266	120.636093139648	627.064392089844	217.14323425293	209.062423706055
3051	15.25	1107.53173828125	416.845977783203	118.247138977051	621.414978027344	216.600616455078	213.838882446289
3052	15.255	1114.02197265625	416.009887695312	116.300933837891	615.678283691406	216.22135925293	218.883056640625
3053	15.26	1119.32067871094	415.100952148438	114.672073364258	609.892944335938	215.990417480469	224.122055053711
